Coordinates
version=1
nRows=9
nColumns=36
inDegrees=yes

Units are S.I. units (second, meters, Newtons, ...)
If the header above contains a line with 'inDegrees', this indicates whether rotational values are in degrees (yes) or radians (no).

endheader
time	pelvis_tilt	pelvis_list	pelvis_rotation	pelvis_tx	pelvis_ty	pelvis_tz	hip_flexion_r	hip_adduction_r	hip_rotation_r	knee_angle_r	knee_angle_r_beta	ankle_angle_r	subtalar_angle_r	mtp_angle_r	hip_flexion_l	hip_adduction_l	hip_rotation_l	knee_angle_l	knee_angle_l_beta	ankle_angle_l	subtalar_angle_l	mtp_angle_l	lumbar_extension	lumbar_bending	lumbar_rotation	arm_flex_r	arm_add_r	arm_rot_r	elbow_flex_r	pro_sup_r	arm_flex_l	arm_add_l	arm_rot_l	elbow_flex_l	pro_sup_l
      8.15000000	     -2.78203243	     -1.20031122	     -1.22739589	     -0.21306223	      1.06135943	     -0.62599347	      6.89524937	      1.51799662	     -2.40558289	      9.91323432	      0.17301858	      5.25064759	     -2.68299733	     -7.49999987	      5.90382416	      1.39450724	      0.89925908	      7.88906811	      0.13769021	      4.76142981	     -4.95120940	     -7.49999987	     -6.85527786	      0.13617881	     -4.96795985	     -4.06650358	     -7.04599786	      1.75668801	     38.25855746	     96.70896311	    -15.89094812	     -6.63488719	     -2.82452980	     51.97150056	     88.93377958
      8.16000000	     -2.80137080	     -1.23317241	     -1.32334362	     -0.21531323	      1.06100606	     -0.62612668	      7.37726940	      1.52922618	     -2.33169060	     10.52284690	      0.18365833	      5.40694374	     -2.80561393	     -7.49999987	      6.31946643	      1.36565006	      0.80494803	      8.42236792	      0.14699805	      4.96221842	     -5.10680612	     -7.49999987	     -7.30185036	      0.18161469	     -4.80800470	     -3.95063437	     -7.09702501	      1.71530332	     38.71013165	     95.76058966	    -15.64913769	     -6.68395240	     -2.85498258	     52.44865254	     88.10044449
      8.17000000	     -2.87776552	     -1.28799145	     -1.42383127	     -0.21772697	      1.06062750	     -0.62628929	      7.92455489	      1.56654097	     -2.13286816	     11.13197378	      0.19428959	      5.50196083	     -2.83087991	     -7.49999987	      6.79321888	      1.30663056	      0.80260490	      8.92222733	      0.15572224	      5.12184814	     -5.09707589	     -7.49999987	     -7.72093258	      0.26762397	     -4.65875825	     -3.83783908	     -7.17365642	      1.66707421	     39.25976593	     94.37911447	    -15.43095158	     -6.75235244	     -2.80046877	     52.99744454	     86.88697334
      8.18000000	     -2.93605303	     -1.25636816	     -1.50695274	     -0.22036664	      1.06017263	     -0.62659157	      8.57880945	      1.49566622	     -2.08034852	     11.94615825	      0.20849979	      5.63234693	     -3.05909743	     -7.49999987	      7.34035552	      1.34686009	      0.75005277	      9.56547783	      0.16694908	      5.24007882	     -5.35657128	     -7.49999987	     -8.20601462	      0.26276668	     -4.59296633	     -3.59442182	     -7.24622813	      1.73832669	     39.59653898	     93.50559811	    -15.21899002	     -6.85677034	     -2.72501995	     53.51366851	     86.14571602
      8.19000000	     -3.07811173	     -1.16279980	     -1.60914547	     -0.22319396	      1.05945877	     -0.62683301	      9.41753956	      1.37550764	     -1.91309149	     12.92638293	      0.22560794	      5.82772711	     -3.36250128	     -7.49999987	      8.01596193	      1.44912973	      0.73800430	     10.26009984	      0.17907252	      5.29949175	     -5.68072064	     -7.49999987	     -8.62331097	      0.16577679	     -4.52734546	     -3.37418273	     -7.29950855	      1.90316977	     39.99433888	     92.51012442	    -15.02024915	     -6.92631943	     -2.72685470	     54.17505024	     85.26883197
      8.20000000	     -3.29784145	     -1.06967285	     -1.65604016	     -0.22628927	      1.05847930	     -0.62710276	     10.37345236	      1.25619896	     -1.74912179	     13.93469619	      0.24320633	      5.91384507	     -3.85446594	     -7.49999987	      8.76417996	      1.62668271	      1.24068592	     10.89657795	      0.19018116	      4.89905447	     -6.93762212	     -7.49999987	     -8.99800011	      0.05108940	     -4.92371861	     -2.71380458	     -7.43589989	      2.47441873	     39.44516500	     98.03982378	    -15.21780394	     -6.76825028	     -3.95525163	     54.61621864	     90.07596084
      8.21000000	     -3.43604473	     -1.04382743	     -1.72136786	     -0.22941425	      1.05751333	     -0.62723864	     11.22796428	      1.19571632	     -1.73164318	     14.91966875	      0.26039734	      6.18003947	     -3.93564468	     -7.49999987	      9.51361944	      1.62946477	      1.05970015	     11.71023748	      0.20438220	      5.34899177	     -6.78886823	     -7.49999987	     -9.48911989	      0.04221904	     -4.69268830	     -2.65229087	     -7.48563734	      2.32390066	     40.26003341	     95.67478967	    -14.86295797	     -6.87350721	     -3.91172419	     55.33673675	     88.11670927
      8.22000000	     -3.74610021	     -0.95607675	     -1.79668563	     -0.23280717	      1.05624629	     -0.62737694	     12.33984467	      1.10498577	     -1.54325526	     15.99169601	      0.27910775	      6.21514927	     -4.50930769	     -7.49999987	     10.49435131	      1.73551298	      1.22235163	     12.55948773	      0.21920441	      5.18045852	     -7.65511515	     -7.49999987	     -9.80952710	     -0.06007572	     -4.73986748	     -2.24808344	     -7.53136771	      2.55340246	     40.34899399	     95.68095936	    -14.77817173	     -6.96432387	     -4.13887165	     56.15112143	     88.06640370
      8.23000000	     -3.89579632	     -0.84375139	     -1.90523136	     -0.23626883	      1.05508141	     -0.62763391	     13.29492532	      0.94020775	     -1.48978211	     17.09229563	      0.29831684	      6.52423920	     -4.52042913	     -7.49999987	     11.37571509	      1.79968161	      0.97673410	     13.57012558	      0.23684337	      5.62505715	     -7.43256446	     -7.49999987	    -10.37604849	     -0.14969971	     -4.51612975	     -2.15138740	     -7.63203743	      2.48174158	     41.19785164	     94.13902036	    -14.39739143	     -7.06855281	     -4.15451536	     56.86419301	     86.73418717
